Simulation
nRows=44
nColumns=15
endheader
time  TH_x TH_y TH_z SC_y  SC_z  SC_x  AC_y  AC_z  AC_x  GH_y  GH_z  GH_yy  EL_x  PS_y
5.745  0.000000  0.000000  0.000000  -51.36897522209406  20.258209494308634  41.035852414140315  70.34432981935807  -8.612237994407712  23.517246733339274  -5.875863762358498  55.61603064837999  -16.785075338408927  18.53492909198087  120.000000
5.80245  0.000000  0.000000  0.000000  -49.94363633681765  19.212487723721924  36.92924049191564  70.77823623060597  -8.538172942867176  23.525811484501983  -6.128029550916276  55.40935856731248  -16.346817998170255  18.840684347091663  120.000000
5.8599  0.000000  0.000000  0.000000  -48.303618813964924  17.7421495086551  32.06598284167868  71.15988097009789  -8.415963181164777  23.61385156253046  -6.608911333048531  55.024283539370906  -15.347117950709238  19.242879683898774  120.000000
5.91735  0.000000  0.000000  0.000000  -46.56603743303476  15.814967664785579  26.684086697321558  71.37009494141515  -8.294142554815899  23.738485097437028  -7.339188548846126  54.50381033926119  -13.725911131667413  19.649236704899938  120.000000
5.9748  0.000000  0.000000  0.000000  -44.858476828528545  13.44908385455323  21.05885253464727  71.28768246647539  -8.240786782547449  23.832240182657795  -8.278020575344067  53.9002593575272  -11.502448466735174  19.954212844875688  120.000000
6.03225  0.000000  0.000000  0.000000  -43.29314076907129  10.714111080010516  15.482442273516277  70.81655792108512  -8.330919953561095  23.812005227019117  -9.328269577639116  53.25728260121166  -8.788885544346398  20.07102736839833  120.000000
6.089700000000001  0.000000  0.000000  0.000000  -41.93361546864286  7.724812567769733  10.243176568246934  69.91525501299685  -8.628082226330688  23.591706484710688  -10.37724154538342  52.58740835675218  -5.77301725944127  19.95373674130189  120.000000
6.14715  0.000000  0.000000  0.000000  -40.7624192133646  4.631137628583076  5.611254106103878  68.61121234468162  -9.168123371794954  23.09550157717709  -11.353299181250517  51.84541428591014  -2.6700934703979864  19.59961057558823  120.000000
6.2046  0.000000  0.000000  0.000000  -39.6792133736884  1.6122332464721703  1.8288716388734654  66.99434954879885  -9.950951483489614  22.27052084864208  -12.248404611527455  50.91928184893274  0.3280231092076994  19.030512271545778  120.000000
6.26205  0.000000  0.000000  0.000000  -38.57154903922269  -1.1241194758650268  -0.9074408363040115  65.19501682768765  -10.939155281706517  21.102742779120863  -13.065591409143776  49.65502409791222  3.0788784863483047  18.293482033519815  120.000000
6.3195  0.000000  0.000000  0.000000  -37.4125785090789  -3.362668451165205  -2.487607264039121  63.367378571879726  -12.066318709253636  19.624941411335126  -13.722895612336702  47.924494066090155  5.475028908132958  17.463652012577136  120.000000
6.37695  0.000000  0.000000  0.000000  -36.30828674126812  -4.942448625903316  -2.9282358316353614  61.658748202400965  -13.26002351079993  17.9037320839334  -14.035184570298648  45.68438768234573  7.438849113079205  16.650677985266825  120.000000
6.4344  0.000000  0.000000  0.000000  -35.44607065759334  -5.820652621688115  -2.36974767440412  60.151694679416416  -14.469120823420955  16.009622706798286  -13.828801703821995  42.99663617256926  8.94776081026952  15.96687298187873  120.000000
6.49185  0.000000  0.000000  0.000000  -34.93481732682505  -6.079897396010619  -1.0228628825297739  58.849990527322255  -15.669985421537138  13.99588505219033  -13.070213111375356  40.008586133090844  10.054338800704526  15.474095742755392  120.000000
6.549300000000001  0.000000  0.000000  0.000000  -34.7197716298494  -5.887683226701822  0.8934693867189573  57.72207995944461  -16.849234097520483  11.907869917062174  -11.879770073291425  36.89589172415973  10.872133584783924  15.20016565704965  120.000000
6.60675  0.000000  0.000000  0.000000  -34.67101018919996  -5.43914567083059  3.168131752886766  56.72837387605792  -17.995210556661696  9.787995399991194  -10.438360783451966  33.82774582365785  11.513853112648196  15.149119062136508  120.000000
6.6642  0.000000  0.000000  0.000000  -34.69701635592866  -4.909631900351219  5.598323187148522  55.819924786022256  -19.09898629555602  7.6697856336391155  -8.903063936015432  30.95595951271904  12.046637423001233  15.30527975451458  120.000000
6.72165  0.000000  0.000000  0.000000  -34.746811117206576  -4.427015760826056  8.008296494542465  54.956174182644816  -20.150933866564294  5.582249368190753  -7.403524637629426  28.39911138084954  12.50952124087756  15.635270585691188  120.000000
6.7791  0.000000  0.000000  0.000000  -34.77495032376009  -4.062891876598045  10.265433816244945  54.112972749848865  -21.13789788131993  3.5577413801031725  -6.071195154052238  26.22868497353005  12.961158901849544  16.082948431682983  120.000000
6.83655  0.000000  0.000000  0.000000  -34.76407382155388  -3.84151277872887  12.279399528389575  53.28353309016207  -22.043792257848896  1.634708171748297  -5.008502358682286  24.47021572731752  13.46741843558227  16.573495083563564  120.000000
6.894  0.000000  0.000000  0.000000  -34.72397383013161  -3.7564707847426546  13.996453189647477  52.48086645542157  -22.852385821380814  -0.1435801552422496  -4.251456028281393  23.10690376300381  14.064896646132572  17.02220968363916  120.000000
6.95145  0.000000  0.000000  0.000000  -34.66220730510324  -3.786138099936537  15.41038095369794  51.72751658041273  -23.554712024764118  -1.743225970296128  -3.7832212616878187  22.08234041871864  14.754499702256137  17.3509782653855  120.000000
7.008900000000001  0.000000  0.000000  0.000000  -34.57747323825883  -3.893335585586022  16.55542028283728  51.040422877473155  -24.153339224419515  -3.1526332957581844  -3.5699449034134263  21.319856476661787  15.516187619378284  17.515144476661433  120.000000
7.06635  0.000000  0.000000  0.000000  -34.472565448690915  -4.03747113269016  17.478400058115415  50.42480694508319  -24.65633142439019  -4.374580092678267  -3.57455736437553  20.750770254625557  16.313465028515594  17.522991545351402  120.000000
7.1238  0.000000  0.000000  0.000000  -34.360305209617884  -4.18636013562036  18.22356585658869  49.88294351030281  -25.07404210008091  -5.419092781802959  -3.7445934891471593  20.32589515431348  17.0825866208171  17.434289804638873  120.000000
7.18125  0.000000  0.000000  0.000000  -34.255686817764364  -4.317737603330345  18.828718878255046  49.41453459455145  -25.417228786990115  -6.299815547953992  -4.026133710151256  20.012423210476776  17.7563747810504  17.334228670362407  120.000000
7.2387  0.000000  0.000000  0.000000  -34.16965632914907  -4.42055638736468  19.323904771630087  49.01839486634623  -25.69620194559417  -7.031702791961252  -4.371322201381478  19.790088092209544  18.283327250597388  17.29650216125234  120.000000
7.29615  0.000000  0.000000  0.000000  -34.10683668264767  -4.4921194537523546  19.73116270086122  48.69239947715623  -25.920108753630426  -7.629307670461381  -4.7448094412347315  19.64565614484396  18.644911633772896  17.35810270283282  120.000000
7.3536  0.000000  0.000000  0.000000  -34.06581448621786  -4.536640960880399  20.065439981761767  48.43298803015516  -26.096896456729503  -8.106645761588133  -5.128239306047972  19.569687536227317  18.860354672973735  17.51257244915674  120.000000
7.41105  0.000000  0.000000  0.000000  -34.0410678579958  -4.561278388723621  20.336278463172448  48.23470580120606  -26.23354984939895  -8.477666463678242  -5.51987608377692  19.553837700489222  18.978646640159752  17.72680854117227  120.000000
7.468500000000001  0.000000  0.000000  0.000000  -34.026572784061486  -4.573408057356132  20.549708230845237  48.08957143062496  -26.336116783711756  -8.756349099838795  -5.927661406183782  19.589690780990036  19.05810929591279  17.96269971270303  120.000000
7.52595  0.000000  0.000000  0.000000  -34.017645488566124  -4.578638962238688  20.709872677792454  47.98817838972685  -26.409964927910618  -8.956625224090391  -6.361379556191231  19.668174016023258  19.147449810247604  18.194159662888985  120.000000
7.5834  0.000000  0.000000  0.000000  -34.011725259496025  -4.580619255331255  20.820629555908077  47.92032651130659  -26.459875758612835  -9.092102138725663  -6.8273117625035695  19.779456798400435  19.274415168708586  18.412130474354687  120.000000
7.64085  0.000000  0.000000  0.000000  -34.00743472688491  -4.580923603925894  20.886932254422025  47.87647698543601  -26.490284645477665  -9.175796752242285  -7.326960668418796  19.913346290271416  19.44668584282577  18.620203214260506  120.000000
7.6983  0.000000  0.000000  0.000000  -34.00389690987408  -4.579731421235314  20.915798305023426  47.848164360103965  -26.50549314238832  -9.220254929145929  -7.857939870737161  20.060256029256514  19.658465415397245  18.82564795797318  120.000000
7.75575  0.000000  0.000000  0.000000  -34.00025940808453  -4.5765688494591545  20.916705020967484  47.82784639038844  -26.510070503993653  -9.238369091330648  -8.41485883435217  20.21219419602389  19.897819707863277  19.03297968499274  120.000000
7.8132  0.000000  0.000000  0.000000  -33.99559216554829  -4.571734212098075  20.901450462423774  47.80842352177883  -26.509347778147557  -9.244574561709117  -8.987390824635925  20.36325705885  20.14923677331801  19.24135702620955  120.000000
7.87065  0.000000  0.000000  0.000000  -33.98955795119072  -4.566477363509547  20.880213719574865  47.785864982300524  -26.507538053630732  -9.249667986249799  -9.56181075194502  20.50861983426216  20.397521210875944  19.446309238458024  120.000000
7.928100000000001  0.000000  0.000000  0.000000  -33.98279002745136  -4.562898171945187  20.85729381732629  47.76267022522889  -26.505850486016698  -9.25528443727159  -10.121763869842331  20.643437783702232  20.629272500376604  19.644071857273246  120.000000
7.98555  0.000000  0.000000  0.000000  -33.975794844256  -4.565639353005969  20.83381111085701  47.74328317261066  -26.50436590434495  -9.259822888591435  -10.645819274518788  20.763132768672275  20.830460000773254  19.83713385290572  120.000000
8.043  0.000000  0.000000  0.000000  -33.968138881056085  -4.580352028429785  20.808753242326727  47.73087009048106  -26.50327226299178  -9.262410261213812  -11.112331911450541  20.86418937032058  20.989466043454726  20.036781984530776  120.000000
8.10045  0.000000  0.000000  0.000000  -33.95839753824905  -4.60920574267206  20.778792479496456  47.724255256226954  -26.502136136427172  -9.262581994894099  -11.514591217320808  20.94555974829995  21.107152467890206  20.258621283836998  120.000000
8.1579  0.000000  0.000000  0.000000  -33.943456751484746  -4.6527115053539205  20.73796571753185  47.71462250266248  -26.488426490499403  -9.272396740492336  -11.864522291495865  21.0057595394518  21.195743338555367  20.514597482248224  120.000000
8.21535  0.000000  0.000000  0.000000  -33.9225373521891  -4.704432997394559  20.66806692599367  47.69283110243218  -26.42720875260285  -9.302891608878355  -12.209160054840552  21.041090461262616  21.28843212056191  20.798848668151386  120.000000
